<?xml version="1.0" encoding="utf-8"?>
<!-- Generator: Adobe Illustrator 18.0.0, SVG Export Plug-In . SVG Version: 6.00 Build 0)  -->
<!DOCTYPE svg PUBLIC "-//W3C//DTD SVG 1.1 Tiny//EN" "http://www.w3.org/Graphics/SVG/1.1/DTD/svg11-tiny.dtd">
<svg version="1.1" baseProfile="tiny" id="Слой_2"
	 xmlns="http://www.w3.org/2000/svg" xmlns:xlink="http://www.w3.org/1999/xlink" x="0px" y="0px" viewBox="0 0 132.5 71.2"
	 xml:space="preserve">
<g>
	<path fill="#4F5A6A" d="M31.9,64.3c0,1.4-0.4,2.5-1.1,3.3c-0.7,0.8-1.7,1.2-3,1.2c-1.2,0-2.2-0.4-2.9-1.2c-0.7-0.8-1.1-1.9-1.1-3.3
		v-3.3c0-1.4,0.4-2.5,1.1-3.4c0.7-0.8,1.7-1.2,2.9-1.2c1.2,0,2.2,0.4,3,1.2c0.7,0.8,1.1,1.9,1.1,3.4V64.3z M30.3,60.9
		c0-1.1-0.2-1.8-0.6-2.4c-0.4-0.5-1-0.8-1.8-0.8c-0.8,0-1.3,0.3-1.7,0.8c-0.4,0.5-0.6,1.3-0.6,2.4v3.3c0,1.1,0.2,1.9,0.6,2.4
		c0.4,0.5,1,0.8,1.7,0.8c0.8,0,1.4-0.3,1.8-0.8c0.4-0.5,0.6-1.4,0.6-2.4V60.9z"/>
	<path fill="#4F5A6A" d="M35.4,63.4v5.2h-1.7V56.6h3.8c1.1,0,2,0.3,2.7,0.9S41,58.9,41,60c0,0.6-0.1,1.2-0.4,1.7
		c-0.3,0.5-0.7,0.8-1.3,1.1c0.6,0.2,1,0.6,1.3,1c0.3,0.5,0.4,1.1,0.4,1.8v1.1c0,0.4,0,0.7,0.1,1c0.1,0.3,0.2,0.6,0.4,0.8v0.2h-1.7
		c-0.2-0.2-0.3-0.5-0.4-0.8c-0.1-0.4-0.1-0.8-0.1-1.2v-1c0-0.7-0.2-1.2-0.5-1.6c-0.3-0.4-0.7-0.6-1.3-0.6H35.4z M35.4,62.1h2
		c0.7,0,1.2-0.2,1.5-0.6c0.3-0.4,0.5-0.9,0.5-1.6c0-0.7-0.2-1.2-0.5-1.6c-0.3-0.4-0.8-0.6-1.4-0.6h-2.1V62.1z"/>
	<path fill="#4F5A6A" d="M49.5,57.8h-3.1v10.8h-1.7V57.8h-3.1v-1.3h7.9V57.8z"/>
	<path fill="#4F5A6A" d="M58.2,64.3c0,1.4-0.4,2.5-1.1,3.3c-0.7,0.8-1.7,1.2-3,1.2c-1.2,0-2.2-0.4-2.9-1.2c-0.7-0.8-1.1-1.9-1.1-3.3
		v-3.3c0-1.4,0.4-2.5,1.1-3.4c0.7-0.8,1.7-1.2,2.9-1.2c1.2,0,2.2,0.4,3,1.2c0.7,0.8,1.1,1.9,1.1,3.4V64.3z M56.6,60.9
		c0-1.1-0.2-1.8-0.6-2.4c-0.4-0.5-1-0.8-1.8-0.8c-0.8,0-1.3,0.3-1.7,0.8c-0.4,0.5-0.6,1.3-0.6,2.4v3.3c0,1.1,0.2,1.9,0.6,2.4
		c0.4,0.5,1,0.8,1.7,0.8c0.8,0,1.4-0.3,1.8-0.8c0.4-0.5,0.6-1.4,0.6-2.4V60.9z"/>
	<path fill="#4F5A6A" d="M60,68.6V56.6h3.3c1.3,0,2.3,0.5,3.1,1.5c0.8,1,1.2,2.2,1.2,3.7v1.7c0,1.5-0.4,2.8-1.2,3.7
		c-0.8,1-1.9,1.4-3.1,1.4H60z M61.7,57.8v9.5h1.6c0.8,0,1.5-0.4,2-1.1c0.5-0.7,0.7-1.7,0.7-2.8v-1.7c0-1.1-0.2-2.1-0.7-2.8
		c-0.5-0.7-1.2-1.1-2-1.1H61.7z"/>
	<path fill="#4F5A6A" d="M77.1,64.3c0,1.4-0.4,2.5-1.1,3.3c-0.7,0.8-1.7,1.2-3,1.2c-1.2,0-2.2-0.4-2.9-1.2c-0.7-0.8-1.1-1.9-1.1-3.3
		v-3.3c0-1.4,0.4-2.5,1.1-3.4s1.7-1.2,2.9-1.2c1.2,0,2.2,0.4,3,1.2s1.1,1.9,1.1,3.4V64.3z M75.4,60.9c0-1.1-0.2-1.8-0.6-2.4
		c-0.4-0.5-1-0.8-1.8-0.8c-0.8,0-1.3,0.3-1.7,0.8c-0.4,0.5-0.6,1.3-0.6,2.4v3.3c0,1.1,0.2,1.9,0.6,2.4c0.4,0.5,1,0.8,1.7,0.8
		c0.8,0,1.4-0.3,1.8-0.8c0.4-0.5,0.6-1.4,0.6-2.4V60.9z"/>
	<path fill="#4F5A6A" d="M86.9,68.6h-1.7l-4.6-9l0,0v9h-1.7V56.6h1.7l4.6,9l0,0v-8.9h1.7V68.6z"/>
	<path fill="#4F5A6A" d="M95.8,57.8h-3.1v10.8H91V57.8h-3.1v-1.3h7.9V57.8z"/>
	<path fill="#4F5A6A" d="M98.9,68.6h-1.7V56.6h1.7V68.6z"/>
	<path fill="#4F5A6A" d="M106.8,65.6H103l-0.9,3.1h-1.7l3.7-12.1h1.6l3.7,12.1h-1.7L106.8,65.6z M103.4,64.2h3.1l-1.5-5.3h-0.1
		L103.4,64.2z"/>
</g>
<g>
	
		<polyline fill="none" stroke="#005371" stroke-width="3" stroke-linecap="round" stroke-linejoin="round" stroke-miterlimit="10" points="
		43.3,32.5 36.9,32.5 36.9,15.1 43.3,15.1 	"/>
	
		<polyline fill="none" stroke="#005371" stroke-width="3" stroke-linecap="round" stroke-linejoin="round" stroke-miterlimit="10" points="
		84.5,15.1 90.6,15.1 90.6,32.5 84.5,32.5 	"/>
	<path fill="#005371" d="M59.7,9.6v8.1h-10V9.6H59.7 M59.7,7.6h-10c-1.1,0-2,0.9-2,2v8.1c0,1.1,0.9,2,2,2h10c1.1,0,2-0.9,2-2V9.6
		C61.7,8.5,60.8,7.6,59.7,7.6L59.7,7.6z"/>
	<path fill="#005371" d="M77.8,9.6v8.1h-10V9.6H77.8 M77.8,7.6h-10c-1.1,0-2,0.9-2,2v8.1c0,1.1,0.9,2,2,2h10c1.1,0,2-0.9,2-2V9.6
		C79.8,8.5,78.9,7.6,77.8,7.6L77.8,7.6z"/>
	<path fill="#005371" d="M80.3,4.8c1.3,0,2.4,1.1,2.4,2.4v33.1c0,1.3-1.1,2.4-2.4,2.4H47.2c-1.3,0-2.4-1.1-2.4-2.4V7.2
		c0-1.3,1.1-2.4,2.4-2.4H80.3 M80.3,1.8H47.2c-3,0-5.4,2.4-5.4,5.4v33.1c0,3,2.4,5.4,5.4,5.4h33.1c3,0,5.4-2.4,5.4-5.4V7.2
		C85.7,4.2,83.3,1.8,80.3,1.8L80.3,1.8z"/>
	
		<line fill="none" stroke="#005371" stroke-width="2" stroke-linecap="round" stroke-linejoin="round" stroke-miterlimit="10" x1="93.9" y1="23.8" x2="79.3" y2="23.8"/>
	
		<line fill="none" stroke="#005371" stroke-width="2" stroke-linecap="round" stroke-linejoin="round" stroke-miterlimit="10" x1="74.3" y1="23.8" x2="33.1" y2="23.8"/>
	<path fill="#005371" d="M59.7,29.7v8.1h-10v-8.1H59.7 M59.7,27.7h-10c-1.1,0-2,0.9-2,2v8.1c0,1.1,0.9,2,2,2h10c1.1,0,2-0.9,2-2
		v-8.1C61.7,28.6,60.8,27.7,59.7,27.7L59.7,27.7z"/>
	<path fill="#005371" d="M77.8,29.7v8.1h-10v-8.1H77.8 M77.8,27.7h-10c-1.1,0-2,0.9-2,2v8.1c0,1.1,0.9,2,2,2h10c1.1,0,2-0.9,2-2
		v-8.1C79.8,28.6,78.9,27.7,77.8,27.7L77.8,27.7z"/>
</g>
</svg>
