<?xml version="1.0" encoding="utf-8"?>
<!-- Generator: Adobe Illustrator 18.0.0, SVG Export Plug-In . SVG Version: 6.00 Build 0)  -->
<!DOCTYPE svg PUBLIC "-//W3C//DTD SVG 1.1 Tiny//EN" "http://www.w3.org/Graphics/SVG/1.1/DTD/svg11-tiny.dtd">
<svg version="1.1" baseProfile="tiny" id="Слой_2"
	 xmlns="http://www.w3.org/2000/svg" xmlns:xlink="http://www.w3.org/1999/xlink" x="0px" y="0px" viewBox="0 0 132.5 71.2"
	 xml:space="preserve">
<g>
	<path fill="#4F5A6A" d="M11.9,64.3c0,1.4-0.4,2.5-1.1,3.3c-0.7,0.8-1.7,1.2-3,1.2c-1.2,0-2.2-0.4-2.9-1.2c-0.7-0.8-1.1-1.9-1.1-3.3
		v-3.3c0-1.4,0.4-2.5,1.1-3.4c0.7-0.8,1.7-1.2,2.9-1.2c1.2,0,2.2,0.4,3,1.2c0.7,0.8,1.1,1.9,1.1,3.4V64.3z M10.2,60.9
		c0-1.1-0.2-1.8-0.6-2.4c-0.4-0.5-1-0.8-1.8-0.8c-0.8,0-1.3,0.3-1.7,0.8c-0.4,0.5-0.6,1.3-0.6,2.4v3.3c0,1.1,0.2,1.9,0.6,2.4
		c0.4,0.5,1,0.8,1.7,0.8c0.8,0,1.4-0.3,1.8-0.8c0.4-0.5,0.6-1.4,0.6-2.4V60.9z"/>
	<path fill="#4F5A6A" d="M13.7,68.6V56.6H17c1.3,0,2.3,0.5,3.1,1.5c0.8,1,1.2,2.2,1.2,3.7v1.7c0,1.5-0.4,2.8-1.2,3.7
		c-0.8,1-1.9,1.4-3.1,1.4H13.7z M15.4,57.8v9.5h1.6c0.8,0,1.5-0.4,2-1.1c0.5-0.7,0.7-1.7,0.7-2.8v-1.7c0-1.1-0.2-2.1-0.7-2.8
		c-0.5-0.7-1.2-1.1-2-1.1H15.4z"/>
	<path fill="#4F5A6A" d="M30.8,64.3c0,1.4-0.4,2.5-1.1,3.3c-0.7,0.8-1.7,1.2-3,1.2c-1.2,0-2.2-0.4-2.9-1.2c-0.7-0.8-1.1-1.9-1.1-3.3
		v-3.3c0-1.4,0.4-2.5,1.1-3.4c0.7-0.8,1.7-1.2,2.9-1.2c1.2,0,2.2,0.4,3,1.2c0.7,0.8,1.1,1.9,1.1,3.4V64.3z M29.1,60.9
		c0-1.1-0.2-1.8-0.6-2.4c-0.4-0.5-1-0.8-1.8-0.8c-0.8,0-1.3,0.3-1.7,0.8c-0.4,0.5-0.6,1.3-0.6,2.4v3.3c0,1.1,0.2,1.9,0.6,2.4
		c0.4,0.5,1,0.8,1.7,0.8c0.8,0,1.4-0.3,1.8-0.8c0.4-0.5,0.6-1.4,0.6-2.4V60.9z"/>
	<path fill="#4F5A6A" d="M40.5,68.6h-1.7l-4.6-9l0,0v9h-1.7V56.6h1.7l4.6,9l0,0v-8.9h1.7V68.6z"/>
	<path fill="#4F5A6A" d="M49.5,57.8h-3.1v10.8h-1.7V57.8h-3.1v-1.3h7.9V57.8z"/>
	<path fill="#4F5A6A" d="M58.2,64.3c0,1.4-0.4,2.5-1.1,3.3c-0.7,0.8-1.7,1.2-3,1.2c-1.2,0-2.2-0.4-2.9-1.2c-0.7-0.8-1.1-1.9-1.1-3.3
		v-3.3c0-1.4,0.4-2.5,1.1-3.4c0.7-0.8,1.7-1.2,2.9-1.2c1.2,0,2.2,0.4,3,1.2c0.7,0.8,1.1,1.9,1.1,3.4V64.3z M56.6,60.9
		c0-1.1-0.2-1.8-0.6-2.4c-0.4-0.5-1-0.8-1.8-0.8c-0.8,0-1.3,0.3-1.7,0.8c-0.4,0.5-0.6,1.3-0.6,2.4v3.3c0,1.1,0.2,1.9,0.6,2.4
		c0.4,0.5,1,0.8,1.7,0.8c0.8,0,1.4-0.3,1.8-0.8c0.4-0.5,0.6-1.4,0.6-2.4V60.9z"/>
	<path fill="#4F5A6A" d="M61.7,63.9v4.8H60V56.6h4c1.1,0,2,0.3,2.7,1c0.6,0.7,1,1.6,1,2.6c0,1.1-0.3,2-1,2.7c-0.6,0.7-1.5,1-2.7,1
		H61.7z M61.7,62.6H64c0.6,0,1.1-0.2,1.4-0.7c0.3-0.4,0.5-1,0.5-1.7c0-0.7-0.2-1.3-0.5-1.7c-0.3-0.5-0.8-0.7-1.4-0.7h-2.3V62.6z"/>
	<path fill="#4F5A6A" d="M75.4,63h-4.5v4.3h5.2v1.3h-6.9V56.6h6.8v1.3h-5.1v3.9h4.5V63z"/>
	<path fill="#4F5A6A" d="M77.5,68.6V56.6h3.3c1.3,0,2.3,0.5,3.1,1.5s1.2,2.2,1.2,3.7v1.7c0,1.5-0.4,2.8-1.2,3.7s-1.9,1.4-3.1,1.4
		H77.5z M79.2,57.8v9.5h1.6c0.8,0,1.5-0.4,2-1.1c0.5-0.7,0.7-1.7,0.7-2.8v-1.7c0-1.1-0.2-2.1-0.7-2.8c-0.5-0.7-1.2-1.1-2-1.1H79.2z"
		/>
	<path fill="#4F5A6A" d="M88.7,68.6H87V56.6h1.7V68.6z"/>
	<path fill="#4F5A6A" d="M96.6,65.6h-3.9l-0.9,3.1h-1.7l3.7-12.1h1.6l3.7,12.1h-1.7L96.6,65.6z M93.2,64.2h3.1L94.8,59h-0.1
		L93.2,64.2z"/>
	<path fill="#4F5A6A" d="M106.3,57.8h-3.1v10.8h-1.7V57.8h-3.1v-1.3h7.9V57.8z"/>
	<path fill="#4F5A6A" d="M109.3,63.4v5.2h-1.7V56.6h3.8c1.1,0,2,0.3,2.7,0.9s0.9,1.4,0.9,2.5c0,0.6-0.1,1.2-0.4,1.7
		c-0.3,0.5-0.7,0.8-1.3,1.1c0.6,0.2,1,0.6,1.3,1c0.3,0.5,0.4,1.1,0.4,1.8v1.1c0,0.4,0,0.7,0.1,1c0.1,0.3,0.2,0.6,0.4,0.8v0.2h-1.7
		c-0.2-0.2-0.3-0.5-0.4-0.8s-0.1-0.8-0.1-1.2v-1c0-0.7-0.2-1.2-0.5-1.6c-0.3-0.4-0.7-0.6-1.3-0.6H109.3z M109.3,62.1h2
		c0.7,0,1.2-0.2,1.5-0.6c0.3-0.4,0.5-0.9,0.5-1.6c0-0.7-0.2-1.2-0.5-1.6c-0.3-0.4-0.8-0.6-1.4-0.6h-2.1V62.1z"/>
	<path fill="#4F5A6A" d="M118.9,68.6h-1.7V56.6h1.7V68.6z"/>
	<path fill="#4F5A6A" d="M126.8,65.6H123l-0.9,3.1h-1.7l3.7-12.1h1.6l3.7,12.1h-1.7L126.8,65.6z M123.4,64.2h3.1l-1.5-5.3h-0.1
		L123.4,64.2z"/>
</g>
<path fill="none" stroke="#005371" stroke-width="3" stroke-linecap="round" stroke-linejoin="round" stroke-miterlimit="10" d="
	M64.8,3.8c-14.5,0-23.5,13.8-23.5,22c0,11.1,8.9,18.7,23.5,18.7c14.6,0,23.5-7.6,23.5-18.7C88.4,17.7,79.4,3.8,64.8,3.8z"/>
<path fill="none" stroke="#005371" stroke-width="2" stroke-linecap="round" stroke-linejoin="round" stroke-miterlimit="10" d="
	M62.2,25.3c0.8,0.4,1.7,0.7,2.7,0.7c0.9,0,1.8-0.2,2.7-0.7"/>
<path fill="none" stroke="#005371" stroke-width="2" stroke-linecap="round" stroke-linejoin="round" stroke-miterlimit="10" d="
	M64.8,25.9c0,2.7-2.5,4.9-5.5,4.9c-1.8,0-3.4-0.8-4.4-2"/>
<path fill="none" stroke="#005371" stroke-width="2" stroke-linecap="round" stroke-linejoin="round" stroke-miterlimit="10" d="
	M74.7,28.9c-1,1.2-2.6,2-4.4,2c-3,0-5.5-2.2-5.5-4.9"/>
<path fill="none" stroke="#005371" stroke-width="2" stroke-linecap="round" stroke-linejoin="round" stroke-miterlimit="10" d="
	M58.6,30.9l1.5,7c0.7,3,4.7,1.8,4.7,1.8v-7.2"/>
<path fill="none" stroke="#005371" stroke-width="2" stroke-linecap="round" stroke-linejoin="round" stroke-miterlimit="10" d="
	M71.1,30.9l-1.5,7c-0.7,3-4.7,1.8-4.7,1.8v-7.2"/>
<path fill="none" stroke="#005371" stroke-width="2" stroke-linecap="round" stroke-linejoin="round" stroke-miterlimit="10" d="
	M55.3,15.2c-1-0.1-1.9,0.9-2.1,2.2c-0.2,1.4,0.4,2.6,1.4,2.8c1,0.1,1.9-0.9,2.1-2.2"/>
<path fill="none" stroke="#005371" stroke-width="2" stroke-linecap="round" stroke-linejoin="round" stroke-miterlimit="10" d="
	M74.3,15.2c-1,0.1-1.6,1.4-1.4,2.8c0.2,1.4,1.1,2.4,2.1,2.2c1-0.1,1.6-1.4,1.4-2.8"/>
<path fill="none" stroke="#005371" stroke-width="3" stroke-linecap="round" stroke-linejoin="round" stroke-miterlimit="10" d="
	M48.9,10.5c-1.2-0.6-1.9-1.8-1.9-3.3c0-2,1.6-3.7,3.7-3.7c1.8,0,3.2,1.3,3.6,2.9"/>
<path fill="none" stroke="#005371" stroke-width="3" stroke-linecap="round" stroke-linejoin="round" stroke-miterlimit="10" d="
	M75.5,6.5c0.3-1.7,1.8-3,3.6-3c2,0,3.7,1.6,3.7,3.7c0,1.4-0.8,2.6-1.9,3.3"/>
</svg>
