<?xml version="1.0" encoding="utf-8"?>
<!-- Generator: Adobe Illustrator 18.0.0, SVG Export Plug-In . SVG Version: 6.00 Build 0)  -->
<!DOCTYPE svg PUBLIC "-//W3C//DTD SVG 1.1 Tiny//EN" "http://www.w3.org/Graphics/SVG/1.1/DTD/svg11-tiny.dtd">
<svg version="1.1" baseProfile="tiny" id="Camada_1"
	 xmlns="http://www.w3.org/2000/svg" xmlns:xlink="http://www.w3.org/1999/xlink" x="0px" y="0px" viewBox="0 0 16 22"
	 xml:space="preserve">
<path fill="#FFFFFF" d="M15.1,22H0.9C0.4,22,0,21.6,0,21.1V0.9C0,0.4,0.4,0,0.9,0h14.2C15.6,0,16,0.4,16,0.9v20.3
	C16,21.6,15.6,22,15.1,22z M1.8,20.3h12.4V1.7H1.8V20.3z"/>
<path fill="#FFFFFF" d="M12.4,5.2H3.6c-0.5,0-0.9-0.4-0.9-0.9s0.4-0.9,0.9-0.9h8.9c0.5,0,0.9,0.4,0.9,0.9S12.9,5.2,12.4,5.2z"/>
<path fill="#FFFFFF" d="M12.4,9.3H3.6c-0.5,0-0.9-0.4-0.9-0.9c0-0.5,0.4-0.9,0.9-0.9h8.9c0.5,0,0.9,0.4,0.9,0.9
	C13.3,8.9,12.9,9.3,12.4,9.3z"/>
<path fill="#FFFFFF" d="M12.4,13.3H3.6c-0.5,0-0.9-0.4-0.9-0.9c0-0.5,0.4-0.9,0.9-0.9h8.9c0.5,0,0.9,0.4,0.9,0.9
	C13.3,12.9,12.9,13.3,12.4,13.3z"/>
</svg>
