<?xml version="1.0" encoding="utf-8"?>
<!-- Generator: Adobe Illustrator 18.0.0, SVG Export Plug-In . SVG Version: 6.00 Build 0)  -->
<!DOCTYPE svg PUBLIC "-//W3C//DTD SVG 1.1 Tiny//EN" "http://www.w3.org/Graphics/SVG/1.1/DTD/svg11-tiny.dtd">
<svg version="1.1" baseProfile="tiny" id="Слой_2"
	 xmlns="http://www.w3.org/2000/svg" xmlns:xlink="http://www.w3.org/1999/xlink" x="0px" y="0px" viewBox="0 0 132.5 71.2"
	 xml:space="preserve">
<g>
	<path fill="#4F5A6A" d="M33.9,64.3V69h-1.7V57h4c1.1,0,2,0.3,2.7,1s1,1.6,1,2.6c0,1.1-0.3,2-1,2.7s-1.5,1-2.7,1H33.9z M33.9,63h2.3
		c0.6,0,1.1-0.2,1.4-0.7c0.3-0.4,0.5-1,0.5-1.7c0-0.7-0.2-1.3-0.5-1.7c-0.3-0.5-0.8-0.7-1.4-0.7h-2.3V63z"/>
	<path fill="#4F5A6A" d="M43.1,63.8V69h-1.7V57h3.8c1.1,0,2,0.3,2.7,0.9s0.9,1.4,0.9,2.5c0,0.6-0.1,1.2-0.4,1.7
		c-0.3,0.5-0.7,0.8-1.3,1.1c0.6,0.2,1,0.6,1.3,1c0.3,0.5,0.4,1.1,0.4,1.8v1.1c0,0.4,0,0.7,0.1,1c0.1,0.3,0.2,0.6,0.4,0.8V69h-1.7
		c-0.2-0.2-0.3-0.5-0.4-0.8c-0.1-0.4-0.1-0.8-0.1-1.2v-1c0-0.7-0.2-1.2-0.5-1.6c-0.3-0.4-0.7-0.6-1.3-0.6H43.1z M43.1,62.5h2
		c0.7,0,1.2-0.2,1.5-0.6c0.3-0.4,0.5-0.9,0.5-1.6c0-0.7-0.2-1.2-0.5-1.6c-0.3-0.4-0.8-0.6-1.4-0.6h-2.1V62.5z"/>
	<path fill="#4F5A6A" d="M58.6,64.7c0,1.4-0.4,2.5-1.1,3.3c-0.7,0.8-1.7,1.2-3,1.2c-1.2,0-2.2-0.4-2.9-1.2c-0.7-0.8-1.1-1.9-1.1-3.3
		v-3.3c0-1.4,0.4-2.5,1.1-3.4c0.7-0.8,1.7-1.2,2.9-1.2c1.2,0,2.2,0.4,3,1.2c0.7,0.8,1.1,1.9,1.1,3.4V64.7z M56.9,61.3
		c0-1.1-0.2-1.8-0.6-2.4c-0.4-0.5-1-0.8-1.8-0.8c-0.8,0-1.3,0.3-1.7,0.8c-0.4,0.5-0.6,1.3-0.6,2.4v3.3c0,1.1,0.2,1.9,0.6,2.4
		c0.4,0.5,1,0.8,1.7,0.8c0.8,0,1.4-0.3,1.8-0.8c0.4-0.5,0.6-1.4,0.6-2.4V61.3z M55.1,53.7H57l0,0l-2,2.2h-1.3L55.1,53.7z"/>
	<path fill="#4F5A6A" d="M67.1,58.2H64V69h-1.7V58.2h-3.1V57h7.9V58.2z"/>
	<path fill="#4F5A6A" d="M74.6,63.4h-4.5v4.3h5.2V69h-6.9V57h6.8v1.3h-5.1v3.9h4.5V63.4z"/>
	<path fill="#4F5A6A" d="M82.2,66c0-0.6-0.2-1-0.5-1.4c-0.3-0.4-0.9-0.7-1.7-1c-1.2-0.3-2-0.8-2.6-1.4c-0.6-0.6-0.9-1.3-0.9-2.2
		c0-1,0.3-1.7,1-2.3c0.7-0.6,1.6-0.9,2.6-0.9c1.1,0,2,0.4,2.7,1.1c0.7,0.7,1,1.6,1,2.6l0,0h-1.6c0-0.7-0.2-1.3-0.5-1.7
		s-0.9-0.7-1.5-0.7c-0.6,0-1.1,0.2-1.4,0.6c-0.3,0.4-0.5,0.8-0.5,1.4c0,0.5,0.2,0.9,0.5,1.3c0.4,0.4,1,0.7,1.8,1
		c1.1,0.3,1.9,0.8,2.5,1.4c0.6,0.6,0.9,1.4,0.9,2.3c0,1-0.3,1.8-1,2.4c-0.7,0.6-1.6,0.9-2.7,0.9c-1.1,0-2-0.3-2.8-1
		c-0.8-0.6-1.2-1.5-1.2-2.7l0,0h1.6c0,0.8,0.2,1.4,0.7,1.8c0.4,0.4,1,0.6,1.7,0.6c0.6,0,1.1-0.2,1.5-0.5C82,67.1,82.2,66.6,82.2,66z
		"/>
	<path fill="#4F5A6A" d="M91.7,63.4h-4.5v4.3h5.2V69h-6.9V57h6.8v1.3h-5.1v3.9h4.5V63.4z"/>
	<path fill="#4F5A6A" d="M99.3,66c0-0.6-0.2-1-0.5-1.4c-0.3-0.4-0.9-0.7-1.7-1c-1.2-0.3-2-0.8-2.6-1.4c-0.6-0.6-0.9-1.3-0.9-2.2
		c0-1,0.3-1.7,1-2.3c0.7-0.6,1.6-0.9,2.6-0.9c1.1,0,2,0.4,2.7,1.1c0.7,0.7,1,1.6,1,2.6l0,0h-1.6c0-0.7-0.2-1.3-0.5-1.7
		s-0.9-0.7-1.5-0.7c-0.6,0-1.1,0.2-1.4,0.6c-0.3,0.4-0.5,0.8-0.5,1.4c0,0.5,0.2,0.9,0.5,1.3c0.4,0.4,1,0.7,1.8,1
		c1.1,0.3,1.9,0.8,2.5,1.4c0.6,0.6,0.9,1.4,0.9,2.3c0,1-0.3,1.8-1,2.4c-0.7,0.6-1.6,0.9-2.7,0.9c-1.1,0-2-0.3-2.8-1
		c-0.8-0.6-1.2-1.5-1.2-2.7l0,0H95c0,0.8,0.2,1.4,0.7,1.8c0.4,0.4,1,0.6,1.7,0.6c0.6,0,1.1-0.2,1.5-0.5C99.2,67.1,99.3,66.6,99.3,66
		z"/>
</g>
<g>
	<g>
		<path fill="none" stroke="#005371" stroke-width="3" stroke-linecap="round" stroke-linejoin="round" stroke-miterlimit="10" d="
			M63.2,25.9c5.6,0,4.2,12.3,3.3,17.1c-0.7,3.7,1.7,4.4,2.9,4.4c6.1,0,8.9-18.8,10.1-29.9C81,4.8,76.3,2.5,68.5,4.6
			c-2.2,0.6-3.7,0.8-5.3,0.8c-1.6,0-3.1-0.2-5.3-0.8c-7.8-2.1-12.5,0.2-11.1,12.9c1.2,11.1,4,29.9,10.1,29.9c1.2,0,3.7-0.7,2.9-4.4
			C58.9,38.2,57.6,25.9,63.2,25.9z"/>
		<g>
			
				<line fill="none" stroke="#005371" stroke-width="2" stroke-linecap="round" stroke-linejoin="round" stroke-miterlimit="10" x1="30.7" y1="20.9" x2="39.5" y2="20.9"/>
			
				<line fill="none" stroke="#005371" stroke-width="2" stroke-linecap="round" stroke-linejoin="round" stroke-miterlimit="10" x1="33.6" y1="11.8" x2="40.3" y2="14.3"/>
			
				<line fill="none" stroke="#005371" stroke-width="2" stroke-linecap="round" stroke-linejoin="round" stroke-miterlimit="10" x1="40.3" y1="27.6" x2="34" y2="30"/>
		</g>
		<g>
			
				<line fill="none" stroke="#005371" stroke-width="2" stroke-linecap="round" stroke-linejoin="round" stroke-miterlimit="10" x1="95.6" y1="20.9" x2="86.7" y2="20.9"/>
			
				<line fill="none" stroke="#005371" stroke-width="2" stroke-linecap="round" stroke-linejoin="round" stroke-miterlimit="10" x1="92.7" y1="11.8" x2="85.9" y2="14.3"/>
			
				<line fill="none" stroke="#005371" stroke-width="2" stroke-linecap="round" stroke-linejoin="round" stroke-miterlimit="10" x1="85.9" y1="27.6" x2="92.2" y2="30"/>
		</g>
	</g>
</g>
</svg>
