<?xml version="1.0" encoding="utf-8"?>
<!-- Generator: Adobe Illustrator 18.0.0, SVG Export Plug-In . SVG Version: 6.00 Build 0)  -->
<!DOCTYPE svg PUBLIC "-//W3C//DTD SVG 1.1 Tiny//EN" "http://www.w3.org/Graphics/SVG/1.1/DTD/svg11-tiny.dtd">
<svg version="1.1" baseProfile="tiny" id="Слой_2"
	 xmlns="http://www.w3.org/2000/svg" xmlns:xlink="http://www.w3.org/1999/xlink" x="0px" y="0px" viewBox="0 0 132.5 71.2"
	 xml:space="preserve">
<g>
	<path fill="#4F5A6A" d="M30.2,69h-1.7V57h1.7V69z"/>
	<path fill="#4F5A6A" d="M34.7,57l2.8,9.9h0l2.8-9.9h2.2V69h-1.7v-4.6l0.1-4.6l0,0L38.1,69h-1.1L34,59.8l0,0l0.2,4.6V69h-1.7V57
		H34.7z"/>
	<path fill="#4F5A6A" d="M46.4,64.3V69h-1.7V57h4c1.1,0,2,0.3,2.7,1s1,1.6,1,2.6c0,1.1-0.3,2-1,2.7s-1.5,1-2.7,1H46.4z M46.4,63h2.3
		c0.6,0,1.1-0.2,1.4-0.7c0.3-0.4,0.5-1,0.5-1.7c0-0.7-0.2-1.3-0.5-1.7c-0.3-0.5-0.8-0.7-1.4-0.7h-2.3V63z"/>
	<path fill="#4F5A6A" d="M55.6,67.8h4.7V69h-6.4V57h1.7V67.8z"/>
	<path fill="#4F5A6A" d="M67.3,66h-3.9L62.5,69h-1.7L64.6,57h1.6L69.9,69h-1.7L67.3,66z M63.8,64.6h3.1l-1.5-5.3h0L63.8,64.6z"/>
	<path fill="#4F5A6A" d="M79,69h-1.7l-4.6-9l0,0v9H71V57h1.7l4.6,9l0,0V57H79V69z"/>
	<path fill="#4F5A6A" d="M88,58.2h-3.1V69h-1.7V58.2h-3.1V57H88V58.2z"/>
	<path fill="#4F5A6A" d="M95.4,63.4H91v4.3h5.2V69h-6.9V57h6.8v1.3H91v3.9h4.5V63.4z"/>
	<path fill="#4F5A6A" d="M103.1,66c0-0.6-0.2-1-0.5-1.4c-0.3-0.4-0.9-0.7-1.7-1c-1.2-0.3-2-0.8-2.6-1.4c-0.6-0.6-0.9-1.3-0.9-2.2
		c0-1,0.3-1.7,1-2.3c0.7-0.6,1.6-0.9,2.6-0.9c1.1,0,2,0.4,2.7,1.1c0.7,0.7,1,1.6,1,2.6l0,0h-1.6c0-0.7-0.2-1.3-0.5-1.7
		s-0.9-0.7-1.5-0.7c-0.6,0-1.1,0.2-1.4,0.6C99.2,59,99,59.4,99,60c0,0.5,0.2,0.9,0.5,1.3c0.4,0.4,1,0.7,1.8,1
		c1.1,0.3,1.9,0.8,2.5,1.4c0.6,0.6,0.9,1.4,0.9,2.3c0,1-0.3,1.8-1,2.4c-0.7,0.6-1.6,0.9-2.7,0.9c-1.1,0-2-0.3-2.8-1
		c-0.8-0.6-1.2-1.5-1.2-2.7l0,0h1.6c0,0.8,0.2,1.4,0.7,1.8c0.4,0.4,1,0.6,1.7,0.6c0.6,0,1.1-0.2,1.5-0.5
		C102.9,67.1,103.1,66.6,103.1,66z"/>
</g>
<g>
	<path fill="none" stroke="#005371" stroke-width="2.5" stroke-linecap="round" stroke-linejoin="round" stroke-miterlimit="10" d="
		M68.9,36c5.4,0,11.7-11.3,11.7-20.9c0-8.3-5.2-12.9-12.4-11.1c-2.1,0.5-3.4,0.7-4.9,0.7c-1.5,0-2.8-0.2-4.9-0.7
		c-7.2-1.8-12.4,2.7-12.4,11.1c0,9.6,6.3,20.9,11.7,20.9"/>
	<g>
		<path fill="#005371" d="M66.2,21.2l1.3,2.1l-1.3,20.9h-5.8l-1.3-20.9l1.3-2.1H66.2 M66.2,18.7h-5.8c-0.9,0-1.7,0.5-2.1,1.2L57,22
			c-0.3,0.4-0.4,0.9-0.4,1.4l1.3,20.9c0.1,1.3,1.2,2.3,2.5,2.3h5.8c1.3,0,2.4-1,2.5-2.3l1.3-20.9c0-0.5-0.1-1-0.4-1.5l-1.3-2.1
			C67.9,19.1,67,18.7,66.2,18.7L66.2,18.7z"/>
	</g>
	<path fill="none" stroke="#005371" stroke-width="3" stroke-linecap="round" stroke-linejoin="round" stroke-miterlimit="10" d="
		M68.9,36c5.4,0,11.7-11.3,11.7-20.9c0-8.3-5.2-12.9-12.4-11.1c-2.1,0.5-3.4,0.7-4.9,0.7c-1.5,0-2.8-0.2-4.9-0.7
		c-7.2-1.8-12.4,2.7-12.4,11.1c0,9.6,6.3,20.9,11.7,20.9"/>
	<path fill="#005371" d="M66.2,21.2l1.3,2.1l-1.3,20.9h-5.8l-1.3-20.9l1.3-2.1H66.2 M66.2,18.2h-5.8c-1,0-2,0.5-2.6,1.4l-1.3,2.1
		c-0.3,0.5-0.5,1.1-0.4,1.7l1.3,20.9c0.1,1.6,1.4,2.8,3,2.8h5.8c1.6,0,2.9-1.2,3-2.8l1.3-20.9c0-0.6-0.1-1.2-0.4-1.7l-1.3-2.1
		C68.2,18.7,67.2,18.2,66.2,18.2L66.2,18.2z"/>
	
		<line fill="none" stroke="#005371" stroke-width="2" stroke-linecap="round" stroke-linejoin="round" stroke-miterlimit="10" x1="58.8" y1="23.3" x2="67.8" y2="23.3"/>
	<g>
		
			<line fill="none" stroke="#005371" stroke-width="2" stroke-linecap="round" stroke-linejoin="round" stroke-miterlimit="10" x1="66" y1="36.4" x2="68.8" y2="36"/>
		
			<line fill="none" stroke="#005371" stroke-width="2" stroke-linecap="round" stroke-linejoin="round" stroke-miterlimit="10" x1="57.9" y1="37.5" x2="63.4" y2="36.7"/>
	</g>
	<g>
		
			<line fill="none" stroke="#005371" stroke-width="2" stroke-linecap="round" stroke-linejoin="round" stroke-miterlimit="10" x1="66" y1="40.7" x2="68.5" y2="40.3"/>
		
			<line fill="none" stroke="#005371" stroke-width="2" stroke-linecap="round" stroke-linejoin="round" stroke-miterlimit="10" x1="58" y1="41.8" x2="63.4" y2="41"/>
	</g>
	<g>
		
			<line fill="none" stroke="#005371" stroke-width="2" stroke-linecap="round" stroke-linejoin="round" stroke-miterlimit="10" x1="65.9" y1="32.1" x2="69.1" y2="31.7"/>
		
			<line fill="none" stroke="#005371" stroke-width="2" stroke-linecap="round" stroke-linejoin="round" stroke-miterlimit="10" x1="57.7" y1="33.2" x2="63.4" y2="32.4"/>
	</g>
	<g>
		
			<line fill="none" stroke="#005371" stroke-width="2" stroke-linecap="round" stroke-linejoin="round" stroke-miterlimit="10" x1="65.8" y1="27.8" x2="69.3" y2="27.3"/>
		
			<line fill="none" stroke="#005371" stroke-width="2" stroke-linecap="round" stroke-linejoin="round" stroke-miterlimit="10" x1="57.5" y1="29" x2="63.4" y2="28.2"/>
	</g>
</g>
</svg>
