<?xml version="1.0" encoding="utf-8"?>
<!-- Generator: Adobe Illustrator 18.0.0, SVG Export Plug-In . SVG Version: 6.00 Build 0)  -->
<!DOCTYPE svg PUBLIC "-//W3C//DTD SVG 1.1 Tiny//EN" "http://www.w3.org/Graphics/SVG/1.1/DTD/svg11-tiny.dtd">
<svg version="1.1" baseProfile="tiny" id="Слой_2"
	 xmlns="http://www.w3.org/2000/svg" xmlns:xlink="http://www.w3.org/1999/xlink" x="0px" y="0px" viewBox="0 0 132.5 71.2"
	 xml:space="preserve">
<g>
	<path fill="#4F5A6A" d="M22.5,65.4L22.5,65.4c0,1.3-0.3,2.2-0.9,2.9c-0.6,0.7-1.5,1-2.7,1c-1.2,0-2.1-0.4-2.8-1.2s-1.1-1.9-1.1-3.3
		v-3.4c0-1.4,0.4-2.5,1-3.3c0.7-0.8,1.6-1.2,2.8-1.2c1.2,0,2.1,0.3,2.7,1s1,1.6,1,2.8l0,0h-1.6c0-0.9-0.2-1.5-0.5-2
		c-0.3-0.4-0.9-0.6-1.6-0.6c-0.7,0-1.2,0.3-1.6,0.8s-0.6,1.4-0.6,2.4v3.4c0,1.1,0.2,1.9,0.6,2.4c0.4,0.6,0.9,0.8,1.6,0.8
		c0.7,0,1.2-0.2,1.5-0.6c0.3-0.4,0.5-1.1,0.5-2H22.5z"/>
	<path fill="#4F5A6A" d="M25.8,67.8h4.7V69h-6.4V57h1.7V67.8z"/>
	<path fill="#4F5A6A" d="M37.5,66h-3.9L32.8,69h-1.7L34.8,57h1.6L40.1,69h-1.7L37.5,66z M34.1,64.6h3.1l-1.5-5.3h0L34.1,64.6z"/>
	<path fill="#4F5A6A" d="M43,63.8V69h-1.7V57h3.8c1.1,0,2,0.3,2.7,0.9s0.9,1.4,0.9,2.5c0,0.6-0.1,1.2-0.4,1.7
		c-0.3,0.5-0.7,0.8-1.3,1.1c0.6,0.2,1,0.6,1.3,1c0.3,0.5,0.4,1.1,0.4,1.8v1.1c0,0.4,0,0.7,0.1,1c0.1,0.3,0.2,0.6,0.4,0.8V69h-1.7
		c-0.2-0.2-0.3-0.5-0.4-0.8C47,67.8,47,67.5,47,67v-1c0-0.7-0.2-1.2-0.5-1.6c-0.3-0.4-0.7-0.6-1.3-0.6H43z M43,62.5h2
		c0.7,0,1.2-0.2,1.5-0.6c0.3-0.4,0.5-0.9,0.5-1.6c0-0.7-0.2-1.2-0.5-1.6c-0.3-0.4-0.8-0.6-1.4-0.6H43V62.5z"/>
	<path fill="#4F5A6A" d="M56.9,63.4h-4.5v4.3h5.2V69h-6.9V57h6.8v1.3h-5.1v3.9h4.5V63.4z"/>
	<path fill="#4F5A6A" d="M64.6,66h-3.9L59.8,69h-1.7L61.8,57h1.6L67.1,69h-1.7L64.6,66z M61.1,64.6h3.1l-1.5-5.3h0L61.1,64.6z"/>
	<path fill="#4F5A6A" d="M70.5,57l2.8,9.9h0l2.8-9.9h2.2V69h-1.7v-4.6l0.1-4.6l0,0L73.9,69h-1.1l-2.9-9.3l0,0l0.2,4.6V69h-1.7V57
		H70.5z"/>
	<path fill="#4F5A6A" d="M86.6,63.4h-4.5v4.3h5.2V69h-6.9V57h6.8v1.3h-5.1v3.9h4.5V63.4z"/>
	<path fill="#4F5A6A" d="M96.7,69h-1.7l-4.6-9l0,0v9h-1.7V57h1.7l4.6,9l0,0V57h1.7V69z"/>
	<path fill="#4F5A6A" d="M105.7,58.2h-3.1V69h-1.7V58.2h-3.1V57h7.9V58.2z"/>
	<path fill="#4F5A6A" d="M114.4,64.7c0,1.4-0.4,2.5-1.1,3.3c-0.7,0.8-1.7,1.2-3,1.2c-1.2,0-2.2-0.4-2.9-1.2
		c-0.7-0.8-1.1-1.9-1.1-3.3v-3.3c0-1.4,0.4-2.5,1.1-3.4c0.7-0.8,1.7-1.2,2.9-1.2c1.2,0,2.2,0.4,3,1.2c0.7,0.8,1.1,1.9,1.1,3.4V64.7z
		 M112.8,61.3c0-1.1-0.2-1.8-0.6-2.4c-0.4-0.5-1-0.8-1.8-0.8c-0.8,0-1.3,0.3-1.7,0.8c-0.4,0.5-0.6,1.3-0.6,2.4v3.3
		c0,1.1,0.2,1.9,0.6,2.4c0.4,0.5,1,0.8,1.7,0.8c0.8,0,1.4-0.3,1.8-0.8c0.4-0.5,0.6-1.4,0.6-2.4V61.3z"/>
</g>
<g>
	<g>
		<path fill="#005371" d="M80.7,4.9l5.9,9.4L63.1,43.6L39.5,14.2l5.9-9.4H80.7 M80.7,1.9H45.4c-1,0-2,0.5-2.5,1.4l-5.9,9.4
			c-0.7,1.1-0.6,2.5,0.2,3.5l23.6,29.3c0.6,0.7,1.4,1.1,2.3,1.1c0.9,0,1.8-0.4,2.3-1.1L89,16.1c0.8-1,0.9-2.4,0.2-3.5l-5.9-9.4
			C82.7,2.4,81.7,1.9,80.7,1.9L80.7,1.9z"/>
	</g>
	
		<line fill="none" stroke="#005371" stroke-width="2" stroke-linecap="round" stroke-linejoin="round" stroke-miterlimit="10" x1="38.7" y1="14.2" x2="76.7" y2="14.2"/>
	
		<line fill="none" stroke="#005371" stroke-width="2" stroke-linecap="round" stroke-linejoin="round" stroke-miterlimit="10" x1="80.7" y1="14.2" x2="88.2" y2="14.2"/>
	
		<line fill="none" stroke="#005371" stroke-width="2" stroke-linecap="round" stroke-linejoin="round" stroke-miterlimit="10" x1="63.1" y1="43.6" x2="63.1" y2="14.2"/>
	
		<line fill="none" stroke="#005371" stroke-width="2" stroke-linecap="round" stroke-linejoin="round" stroke-miterlimit="10" x1="63.1" y1="43.6" x2="79.8" y2="7.6"/>
	
		<line fill="none" stroke="#005371" stroke-width="2" stroke-linecap="round" stroke-linejoin="round" stroke-miterlimit="10" x1="63.1" y1="43.6" x2="46.5" y2="7.6"/>
	<g>
		
			<line fill="none" stroke="#005371" stroke-width="2" stroke-linecap="round" stroke-linejoin="round" stroke-miterlimit="10" x1="56.7" y1="4.9" x2="50.3" y2="14.2"/>
		
			<line fill="none" stroke="#005371" stroke-width="2" stroke-linecap="round" stroke-linejoin="round" stroke-miterlimit="10" x1="56.7" y1="4.9" x2="63" y2="14.2"/>
	</g>
	<g>
		
			<line fill="none" stroke="#005371" stroke-width="2" stroke-linecap="round" stroke-linejoin="round" stroke-miterlimit="10" x1="69.4" y1="4.9" x2="63.1" y2="14.2"/>
		
			<line fill="none" stroke="#005371" stroke-width="2" stroke-linecap="round" stroke-linejoin="round" stroke-miterlimit="10" x1="69.4" y1="4.9" x2="75.7" y2="14.2"/>
	</g>
</g>
</svg>
