<?xml version="1.0" encoding="utf-8"?>
<!-- Generator: Adobe Illustrator 18.0.0, SVG Export Plug-In . SVG Version: 6.00 Build 0)  -->
<!DOCTYPE svg PUBLIC "-//W3C//DTD SVG 1.1 Tiny//EN" "http://www.w3.org/Graphics/SVG/1.1/DTD/svg11-tiny.dtd">
<svg version="1.1" baseProfile="tiny" id="Слой_2"
	 xmlns="http://www.w3.org/2000/svg" xmlns:xlink="http://www.w3.org/1999/xlink" x="0px" y="0px" viewBox="0 0 132.5 71.2"
	 xml:space="preserve">
<g>
	<path fill="#4F5A6A" d="M25.2,63h-4.5v4.3h5.2v1.3h-6.9V56.6h6.8v1.3h-5.1v3.9h4.5V63z"/>
	<path fill="#4F5A6A" d="M35.3,68.6h-1.7l-4.6-9l0,0v9h-1.7V56.6H29l4.6,9l0,0v-8.9h1.7V68.6z"/>
	<path fill="#4F5A6A" d="M37.5,68.6V56.6h3.3c1.3,0,2.3,0.5,3.1,1.5c0.8,1,1.2,2.2,1.2,3.7v1.7c0,1.5-0.4,2.8-1.2,3.7
		c-0.8,1-1.9,1.4-3.1,1.4H37.5z M39.2,57.8v9.5h1.6c0.8,0,1.5-0.4,2-1.1c0.5-0.7,0.7-1.7,0.7-2.8v-1.7c0-1.1-0.2-2.1-0.7-2.8
		c-0.5-0.7-1.2-1.1-2-1.1H39.2z"/>
	<path fill="#4F5A6A" d="M54.6,64.3c0,1.4-0.4,2.5-1.1,3.3c-0.7,0.8-1.7,1.2-3,1.2c-1.2,0-2.2-0.4-2.9-1.2c-0.7-0.8-1.1-1.9-1.1-3.3
		v-3.3c0-1.4,0.4-2.5,1.1-3.4c0.7-0.8,1.7-1.2,2.9-1.2c1.2,0,2.2,0.4,3,1.2c0.7,0.8,1.1,1.9,1.1,3.4V64.3z M53,60.9
		c0-1.1-0.2-1.8-0.6-2.4c-0.4-0.5-1-0.8-1.8-0.8c-0.8,0-1.3,0.3-1.7,0.8c-0.4,0.5-0.6,1.3-0.6,2.4v3.3c0,1.1,0.2,1.9,0.6,2.4
		c0.4,0.5,1,0.8,1.7,0.8c0.8,0,1.4-0.3,1.8-0.8c0.4-0.5,0.6-1.4,0.6-2.4V60.9z"/>
	<path fill="#4F5A6A" d="M56.4,68.6V56.6h3.3c1.3,0,2.3,0.5,3.1,1.5s1.2,2.2,1.2,3.7v1.7c0,1.5-0.4,2.8-1.2,3.7s-1.9,1.4-3.1,1.4
		H56.4z M58.1,57.8v9.5h1.6c0.8,0,1.5-0.4,2-1.1c0.5-0.7,0.7-1.7,0.7-2.8v-1.7c0-1.1-0.2-2.1-0.7-2.8c-0.5-0.7-1.2-1.1-2-1.1H58.1z"
		/>
	<path fill="#4F5A6A" d="M73.5,64.3c0,1.4-0.4,2.5-1.1,3.3c-0.7,0.8-1.7,1.2-3,1.2c-1.2,0-2.2-0.4-2.9-1.2c-0.7-0.8-1.1-1.9-1.1-3.3
		v-3.3c0-1.4,0.4-2.5,1.1-3.4s1.7-1.2,2.9-1.2c1.2,0,2.2,0.4,3,1.2s1.1,1.9,1.1,3.4V64.3z M71.8,60.9c0-1.1-0.2-1.8-0.6-2.4
		c-0.4-0.5-1-0.8-1.8-0.8c-0.8,0-1.3,0.3-1.7,0.8c-0.4,0.5-0.6,1.3-0.6,2.4v3.3c0,1.1,0.2,1.9,0.6,2.4c0.4,0.5,1,0.8,1.7,0.8
		c0.8,0,1.4-0.3,1.8-0.8c0.4-0.5,0.6-1.4,0.6-2.4V60.9z"/>
	<path fill="#4F5A6A" d="M83.3,68.6h-1.7l-4.6-9l0,0v9h-1.7V56.6H77l4.6,9l0,0v-8.9h1.7V68.6z"/>
	<path fill="#4F5A6A" d="M92.2,57.8h-3.1v10.8h-1.7V57.8h-3.1v-1.3h7.9V57.8z"/>
	<path fill="#4F5A6A" d="M95.3,68.6h-1.7V56.6h1.7V68.6z"/>
	<path fill="#4F5A6A" d="M103.2,65.6h-3.9l-0.9,3.1h-1.7l3.7-12.1h1.6l3.7,12.1h-1.7L103.2,65.6z M99.8,64.2h3.1l-1.5-5.3h-0.1
		L99.8,64.2z"/>
</g>
<g>
	<path fill="#005371" d="M89.4,4.8v38.4H39.3V4.8H89.4 M89.4,1.8H39.3c-1.7,0-3,1.3-3,3v38.4c0,1.7,1.3,3,3,3h50.1c1.7,0,3-1.3,3-3
		V4.8C92.4,3.2,91,1.8,89.4,1.8L89.4,1.8z"/>
	<path fill="none" stroke="#005371" stroke-width="2" stroke-linecap="round" stroke-linejoin="round" stroke-miterlimit="10" d="
		M64.3,25.6c3.1,0,2.3,6.7,1.8,9.3c-0.4,2,0.9,2.4,1.6,2.4c3.3,0,4.9-10.2,5.5-16.3c0.8-6.9-1.8-8.2-6.1-7.1c-1.2,0.3-2,0.4-2.9,0.4
		c-0.9,0-1.7-0.1-2.9-0.4c-4.3-1.1-6.8,0.1-6.1,7.1c0.7,6.1,2.2,16.3,5.5,16.3c0.7,0,2-0.4,1.6-2.4C62,32.3,61.2,25.6,64.3,25.6z"/>
	
		<circle fill="none" stroke="#005371" stroke-width="2" stroke-linecap="round" stroke-linejoin="round" stroke-miterlimit="10" cx="81.7" cy="12.6" r="3"/>
	
		<circle fill="none" stroke="#005371" stroke-width="2" stroke-linecap="round" stroke-linejoin="round" stroke-miterlimit="10" cx="46.9" cy="28.4" r="3"/>
	
		<line fill="none" stroke="#005371" stroke-width="2" stroke-linecap="round" stroke-linejoin="round" stroke-miterlimit="10" x1="81.7" y1="12.6" x2="68.9" y2="23.1"/>
	
		<line fill="none" stroke="#005371" stroke-width="2" stroke-linecap="round" stroke-linejoin="round" stroke-miterlimit="10" x1="46.9" y1="28.4" x2="64.3" y2="19.6"/>
	
		<line fill="none" stroke="#005371" stroke-width="2" stroke-linecap="round" stroke-linejoin="round" stroke-miterlimit="10" x1="43.9" y1="10.1" x2="52.4" y2="10.1"/>
	
		<line fill="none" stroke="#005371" stroke-width="2" stroke-linecap="round" stroke-linejoin="round" stroke-miterlimit="10" x1="43.9" y1="13.9" x2="49.6" y2="13.9"/>
	
		<line fill="none" stroke="#005371" stroke-width="2" stroke-linecap="round" stroke-linejoin="round" stroke-miterlimit="10" x1="79.5" y1="38.7" x2="85.1" y2="38.7"/>
	
		<line fill="none" stroke="#005371" stroke-width="2" stroke-linecap="round" stroke-linejoin="round" stroke-miterlimit="10" x1="81.7" y1="35" x2="85.1" y2="35"/>
	
		<line fill="none" stroke="#005371" stroke-width="2" stroke-linecap="round" stroke-linejoin="round" stroke-miterlimit="10" x1="77.2" y1="35" x2="78.2" y2="35"/>
	<circle fill="none" stroke="#005371" stroke-miterlimit="10" cx="64.3" cy="19.6" r="1.8"/>
	<circle fill="none" stroke="#005371" stroke-miterlimit="10" cx="68.9" cy="23.1" r="1.8"/>
</g>
</svg>
