<?xml version="1.0" encoding="utf-8"?>
<!-- Generator: Adobe Illustrator 18.0.0, SVG Export Plug-In . SVG Version: 6.00 Build 0)  -->
<!DOCTYPE svg PUBLIC "-//W3C//DTD SVG 1.1 Tiny//EN" "http://www.w3.org/Graphics/SVG/1.1/DTD/svg11-tiny.dtd">
<svg version="1.1" baseProfile="tiny" id="Слой_2"
	 xmlns="http://www.w3.org/2000/svg" xmlns:xlink="http://www.w3.org/1999/xlink" x="0px" y="0px" viewBox="0 0 132.5 71.2"
	 xml:space="preserve">
<g>
	<path fill="#4F5A6A" d="M15.7,60.8V66H14V54h3.8c1.1,0,2,0.3,2.7,0.9s0.9,1.4,0.9,2.5c0,0.6-0.1,1.2-0.4,1.7
		c-0.3,0.5-0.7,0.8-1.3,1.1c0.6,0.2,1,0.6,1.3,1c0.3,0.5,0.4,1.1,0.4,1.8v1.1c0,0.4,0,0.7,0.1,1c0.1,0.3,0.2,0.6,0.4,0.8V66h-1.7
		c-0.2-0.2-0.3-0.5-0.4-0.8c-0.1-0.4-0.1-0.8-0.1-1.2v-1c0-0.7-0.2-1.2-0.5-1.6c-0.3-0.4-0.7-0.6-1.3-0.6H15.7z M15.7,59.5h2
		c0.7,0,1.2-0.2,1.5-0.6c0.3-0.4,0.5-0.9,0.5-1.6c0-0.7-0.2-1.2-0.5-1.6c-0.3-0.4-0.8-0.6-1.4-0.6h-2.1V59.5z"/>
	<path fill="#4F5A6A" d="M29.6,60.4h-4.5v4.3h5.2V66h-6.9V54h6.8v1.3h-5.1v3.9h4.5V60.4z"/>
	<path fill="#4F5A6A" d="M37.3,63c0-0.6-0.2-1-0.5-1.4s-0.9-0.7-1.7-1c-1.2-0.3-2-0.8-2.6-1.4S31.5,58,31.5,57c0-1,0.3-1.7,1-2.3
		c0.7-0.6,1.6-0.9,2.6-0.9c1.1,0,2,0.4,2.7,1.1c0.7,0.7,1,1.6,1,2.6l0,0h-1.6c0-0.7-0.2-1.3-0.5-1.7c-0.4-0.4-0.9-0.7-1.5-0.7
		c-0.6,0-1.1,0.2-1.4,0.6c-0.3,0.4-0.5,0.8-0.5,1.4c0,0.5,0.2,0.9,0.5,1.3c0.4,0.4,1,0.7,1.8,1c1.1,0.3,1.9,0.8,2.5,1.4
		c0.6,0.6,0.9,1.4,0.9,2.3c0,1-0.3,1.8-1,2.4s-1.6,0.9-2.7,0.9c-1.1,0-2-0.3-2.8-1c-0.8-0.6-1.2-1.5-1.2-2.7l0,0h1.6
		c0,0.8,0.2,1.4,0.7,1.8c0.4,0.4,1,0.6,1.7,0.6c0.6,0,1.1-0.2,1.5-0.5C37.1,64.1,37.3,63.6,37.3,63z"/>
	<path fill="#4F5A6A" d="M47.6,55.2h-3.1V66h-1.7V55.2h-3.1V54h7.9V55.2z"/>
	<path fill="#4F5A6A" d="M53.7,63h-3.9L49,66h-1.7L51,54h1.6L56.3,66h-1.7L53.7,63z M50.2,61.6h3.1l-1.5-5.3h0L50.2,61.6z"/>
	<path fill="#4F5A6A" d="M64.8,54v8.4c0,1.3-0.4,2.2-1.1,2.9c-0.7,0.7-1.7,1-2.8,1c-1.1,0-2.1-0.3-2.8-1s-1.1-1.6-1.1-2.9V54h1.7
		v8.4c0,0.9,0.2,1.5,0.6,2s0.9,0.7,1.6,0.7c0.7,0,1.2-0.2,1.6-0.6s0.6-1.1,0.6-2V54H64.8z"/>
	<path fill="#4F5A6A" d="M68.5,60.8V66h-1.7V54h3.8c1.1,0,2,0.3,2.7,0.9s0.9,1.4,0.9,2.5c0,0.6-0.1,1.2-0.4,1.7
		c-0.3,0.5-0.7,0.8-1.3,1.1c0.6,0.2,1,0.6,1.3,1c0.3,0.5,0.4,1.1,0.4,1.8v1.1c0,0.4,0,0.7,0.1,1c0.1,0.3,0.2,0.6,0.4,0.8V66h-1.7
		c-0.2-0.2-0.3-0.5-0.4-0.8s-0.1-0.8-0.1-1.2v-1c0-0.7-0.2-1.2-0.5-1.6s-0.7-0.6-1.3-0.6H68.5z M68.5,59.5h2c0.7,0,1.2-0.2,1.5-0.6
		c0.3-0.4,0.5-0.9,0.5-1.6c0-0.7-0.2-1.2-0.5-1.6c-0.3-0.4-0.8-0.6-1.4-0.6h-2.1V59.5z"/>
	<path fill="#4F5A6A" d="M81.8,63h-3.9L77,66h-1.7L79,54h1.6L84.4,66h-1.7L81.8,63z M78.3,61.6h3.1l-1.5-5.3h-0.1L78.3,61.6z"/>
	<path fill="#4F5A6A" d="M92.6,62.4L92.6,62.4c0,1.3-0.3,2.2-0.9,2.9c-0.6,0.7-1.5,1-2.7,1c-1.2,0-2.1-0.4-2.8-1.2s-1.1-1.9-1.1-3.3
		v-3.4c0-1.4,0.3-2.5,1-3.3s1.6-1.2,2.8-1.2c1.2,0,2.1,0.3,2.7,1c0.6,0.6,1,1.6,1,2.8l0,0H91c0-0.9-0.2-1.5-0.5-2
		c-0.3-0.4-0.9-0.6-1.6-0.6c-0.7,0-1.2,0.3-1.6,0.8s-0.6,1.4-0.6,2.4v3.4c0,1.1,0.2,1.9,0.6,2.4c0.4,0.6,0.9,0.8,1.6,0.8
		c0.7,0,1.2-0.2,1.5-0.6c0.3-0.4,0.5-1.1,0.5-2H92.6z M89.5,66.1l-0.1,0.5c0.3,0.1,0.6,0.2,0.8,0.4s0.3,0.6,0.3,1
		c0,0.5-0.2,1-0.6,1.3c-0.4,0.3-1,0.5-1.7,0.5l0-0.9c0.3,0,0.5-0.1,0.7-0.2c0.2-0.1,0.3-0.3,0.3-0.6c0-0.3-0.1-0.5-0.2-0.6
		c-0.2-0.1-0.4-0.2-0.8-0.2l0.2-1.1H89.5z"/>
	<path fill="#4F5A6A" d="M102,61.7c0,1.4-0.4,2.5-1.1,3.3c-0.7,0.8-1.7,1.2-3,1.2c-1.2,0-2.2-0.4-2.9-1.2c-0.7-0.8-1.1-1.9-1.1-3.3
		v-3.3c0-1.4,0.4-2.5,1.1-3.4s1.7-1.2,2.9-1.2c1.2,0,2.2,0.4,3,1.2s1.1,1.9,1.1,3.4V61.7z M100.4,50.6c0,0.5-0.1,0.9-0.4,1.3
		c-0.3,0.3-0.6,0.5-1,0.5c-0.3,0-0.7-0.1-1.1-0.4s-0.7-0.4-0.9-0.4c-0.2,0-0.3,0.1-0.5,0.3c-0.1,0.2-0.2,0.4-0.2,0.7l-0.9-0.2
		c0-0.5,0.1-0.9,0.4-1.3c0.3-0.4,0.6-0.5,1-0.5c0.3,0,0.6,0.1,1,0.4c0.4,0.3,0.8,0.4,1,0.4c0.2,0,0.3-0.1,0.5-0.3s0.2-0.4,0.2-0.7
		L100.4,50.6z M100.3,58.3c0-1.1-0.2-1.8-0.6-2.4c-0.4-0.5-1-0.8-1.8-0.8c-0.8,0-1.3,0.3-1.7,0.8c-0.4,0.5-0.6,1.3-0.6,2.4v3.3
		c0,1.1,0.2,1.9,0.6,2.4c0.4,0.5,1,0.8,1.7,0.8c0.8,0,1.4-0.3,1.8-0.8c0.4-0.5,0.6-1.4,0.6-2.4V58.3z"/>
	<path fill="#4F5A6A" d="M109.9,60.4h-4.5v4.3h5.2V66h-6.9V54h6.8v1.3h-5.1v3.9h4.5V60.4z"/>
	<path fill="#4F5A6A" d="M117.5,63c0-0.6-0.2-1-0.5-1.4c-0.3-0.4-0.9-0.7-1.7-1c-1.2-0.3-2-0.8-2.6-1.4c-0.6-0.6-0.9-1.3-0.9-2.2
		c0-1,0.3-1.7,1-2.3c0.7-0.6,1.6-0.9,2.6-0.9c1.1,0,2,0.4,2.7,1.1c0.7,0.7,1,1.6,1,2.6l0,0h-1.6c0-0.7-0.2-1.3-0.5-1.7
		s-0.9-0.7-1.5-0.7c-0.6,0-1.1,0.2-1.4,0.6c-0.3,0.4-0.5,0.8-0.5,1.4c0,0.5,0.2,0.9,0.5,1.3c0.4,0.4,1,0.7,1.8,1
		c1.1,0.3,1.9,0.8,2.5,1.4c0.6,0.6,0.9,1.4,0.9,2.3c0,1-0.3,1.8-1,2.4c-0.7,0.6-1.6,0.9-2.7,0.9c-1.1,0-2-0.3-2.8-1
		c-0.8-0.6-1.2-1.5-1.2-2.7l0,0h1.6c0,0.8,0.2,1.4,0.7,1.8c0.4,0.4,1,0.6,1.7,0.6c0.6,0,1.1-0.2,1.5-0.5
		C117.4,64.1,117.5,63.6,117.5,63z"/>
</g>
<g>
	<path fill="none" stroke="#005371" stroke-width="3" stroke-linecap="round" stroke-linejoin="round" stroke-miterlimit="10" d="
		M62.9,25.5c5.6,0,4.2,12.2,3.3,16.8c-0.7,3.6,1.7,4.4,2.9,4.4c6,0,8.8-18.5,10-29.5c1.4-12.5-3.3-14.8-11-12.7
		c-2.2,0.6-3.7,0.8-5.2,0.8c-1.6,0-3-0.2-5.2-0.8c-7.7-2-12.3,0.2-11,12.7c1.2,11,4,29.5,10,29.5c1.2,0,3.6-0.7,2.9-4.4
		C58.8,37.7,57.4,25.5,62.9,25.5z"/>
	
		<path fill="none" stroke="#005371" stroke-width="2" stroke-linecap="round" stroke-linejoin="round" stroke-dasharray="2.0958,3.8773" d="
		M72,4.7C72,4.9,72,5.1,72,5.3c0.5,5-3.1,9.5-8.1,10c-5,0.5-9.5-3.1-10-8.1c-0.1-1,0-1.9,0.1-2.8"/>
</g>
</svg>
