<?xml version="1.0" encoding="utf-8"?>
<!-- Generator: Adobe Illustrator 18.0.0, SVG Export Plug-In . SVG Version: 6.00 Build 0)  -->
<!DOCTYPE svg PUBLIC "-//W3C//DTD SVG 1.1 Tiny//EN" "http://www.w3.org/Graphics/SVG/1.1/DTD/svg11-tiny.dtd">
<svg version="1.1" baseProfile="tiny" id="Слой_2"
	 xmlns="http://www.w3.org/2000/svg" xmlns:xlink="http://www.w3.org/1999/xlink" x="0px" y="0px" viewBox="0 0 132.5 71.2"
	 xml:space="preserve">
<g>
	<g>
		<path fill="none" stroke="#005371" stroke-width="3" stroke-linecap="round" stroke-linejoin="round" stroke-miterlimit="10" d="
			M63.4,24.5c5.4,0,4.1,11.8,3.2,16.4c-0.7,3.5,1.6,4.2,2.8,4.2c5.9,0,8.6-18,9.7-28.7C80.5,4.2,76,2,68.5,4
			c-2.1,0.6-3.6,0.8-5.1,0.8c-1.5,0-2.9-0.2-5.1-0.8c-7.5-2-12,0.2-10.7,12.4c1.2,10.7,3.9,28.7,9.7,28.7c1.2,0,3.5-0.7,2.8-4.2
			C59.3,36.3,58,24.5,63.4,24.5z"/>
		<path fill="none" stroke="#005371" stroke-width="3" stroke-linecap="round" stroke-linejoin="round" stroke-miterlimit="10" d="
			M47.7,16.4c-0.2,7.2-13,6.2-13,6.2"/>
		<path fill="none" stroke="#005371" stroke-width="2" stroke-linecap="round" stroke-linejoin="round" stroke-miterlimit="10" d="
			M48,22.6c0,5-13.3,4.5-13.3,4.5"/>
		<path fill="none" stroke="#005371" stroke-width="2" stroke-linecap="round" stroke-linejoin="round" stroke-miterlimit="10" d="
			M79.1,22.6c0,5,13.3,4.5,13.3,4.5"/>
		<path fill="none" stroke="#005371" stroke-width="3" stroke-linecap="round" stroke-linejoin="round" stroke-miterlimit="10" d="
			M79.2,16.4c0.2,7.2,13,6.2,13,6.2"/>
	</g>
</g>
<g>
	<path fill="#4F5A6A" d="M19.2,63.9v4.8h-1.7V56.6h4c1.1,0,2,0.3,2.7,1s1,1.6,1,2.6c0,1.1-0.3,2-1,2.7s-1.5,1-2.7,1H19.2z
		 M19.2,62.6h2.3c0.6,0,1.1-0.2,1.4-0.7c0.3-0.4,0.5-1,0.5-1.7c0-0.7-0.2-1.3-0.5-1.7c-0.3-0.5-0.8-0.7-1.4-0.7h-2.3V62.6z"/>
	<path fill="#4F5A6A" d="M32.9,63h-4.5v4.3h5.2v1.3h-6.9V56.6h6.8v1.3h-5.1v3.9h4.5V63z"/>
	<path fill="#4F5A6A" d="M36.7,63.4v5.2H35V56.6h3.8c1.1,0,2,0.3,2.7,0.9s0.9,1.4,0.9,2.5c0,0.6-0.1,1.2-0.4,1.7
		c-0.3,0.5-0.7,0.8-1.3,1.1c0.6,0.2,1,0.6,1.3,1c0.3,0.5,0.4,1.1,0.4,1.8v1.1c0,0.4,0,0.7,0.1,1c0.1,0.3,0.2,0.6,0.4,0.8v0.2h-1.7
		c-0.2-0.2-0.3-0.5-0.4-0.8c-0.1-0.4-0.1-0.8-0.1-1.2v-1c0-0.7-0.2-1.2-0.5-1.6c-0.3-0.4-0.7-0.6-1.3-0.6H36.7z M36.7,62.1h2
		c0.7,0,1.2-0.2,1.5-0.6c0.3-0.4,0.5-0.9,0.5-1.6c0-0.7-0.2-1.2-0.5-1.6c-0.3-0.4-0.8-0.6-1.4-0.6h-2.1V62.1z"/>
	<path fill="#4F5A6A" d="M46.2,68.6h-1.7V56.6h1.7V68.6z"/>
	<path fill="#4F5A6A" d="M56.2,64.3c0,1.4-0.4,2.5-1.1,3.3c-0.7,0.8-1.7,1.2-3,1.2c-1.2,0-2.2-0.4-2.9-1.2c-0.7-0.8-1.1-1.9-1.1-3.3
		v-3.3c0-1.4,0.4-2.5,1.1-3.4c0.7-0.8,1.7-1.2,2.9-1.2c1.2,0,2.2,0.4,3,1.2c0.7,0.8,1.1,1.9,1.1,3.4V64.3z M54.6,60.9
		c0-1.1-0.2-1.8-0.6-2.4c-0.4-0.5-1-0.8-1.8-0.8c-0.8,0-1.3,0.3-1.7,0.8c-0.4,0.5-0.6,1.3-0.6,2.4v3.3c0,1.1,0.2,1.9,0.6,2.4
		c0.4,0.5,1,0.8,1.7,0.8c0.8,0,1.4-0.3,1.8-0.8c0.4-0.5,0.6-1.4,0.6-2.4V60.9z"/>
	<path fill="#4F5A6A" d="M58,68.6V56.6h3.3c1.3,0,2.3,0.5,3.1,1.5s1.2,2.2,1.2,3.7v1.7c0,1.5-0.4,2.8-1.2,3.7s-1.9,1.4-3.1,1.4H58z
		 M59.7,57.8v9.5h1.6c0.8,0,1.5-0.4,2-1.1c0.5-0.7,0.7-1.7,0.7-2.8v-1.7c0-1.1-0.2-2.1-0.7-2.8c-0.5-0.7-1.2-1.1-2-1.1H59.7z"/>
	<path fill="#4F5A6A" d="M75.1,64.3c0,1.4-0.4,2.5-1.1,3.3c-0.7,0.8-1.7,1.2-3,1.2c-1.2,0-2.2-0.4-2.9-1.2c-0.7-0.8-1.1-1.9-1.1-3.3
		v-3.3c0-1.4,0.4-2.5,1.1-3.4s1.7-1.2,2.9-1.2c1.2,0,2.2,0.4,3,1.2s1.1,1.9,1.1,3.4V64.3z M73.4,60.9c0-1.1-0.2-1.8-0.6-2.4
		c-0.4-0.5-1-0.8-1.8-0.8c-0.8,0-1.3,0.3-1.7,0.8c-0.4,0.5-0.6,1.3-0.6,2.4v3.3c0,1.1,0.2,1.9,0.6,2.4c0.4,0.5,1,0.8,1.7,0.8
		c0.8,0,1.4-0.3,1.8-0.8c0.4-0.5,0.6-1.4,0.6-2.4V60.9z"/>
	<path fill="#4F5A6A" d="M84.9,68.6h-1.7l-4.6-9l0,0v9h-1.7V56.6h1.7l4.6,9l0,0v-8.9h1.7V68.6z"/>
	<path fill="#4F5A6A" d="M93.8,57.8h-3.1v10.8H89V57.8h-3.1v-1.3h7.9V57.8z"/>
	<path fill="#4F5A6A" d="M96.9,68.6h-1.7V56.6h1.7V68.6z"/>
	<path fill="#4F5A6A" d="M104.8,65.6H101l-0.9,3.1h-1.7l3.7-12.1h1.6l3.7,12.1h-1.7L104.8,65.6z M101.4,64.2h3.1l-1.5-5.3h-0.1
		L101.4,64.2z"/>
</g>
</svg>
