<?xml version="1.0" encoding="utf-8"?>
<!-- Generator: Adobe Illustrator 18.0.0, SVG Export Plug-In . SVG Version: 6.00 Build 0)  -->
<!DOCTYPE svg PUBLIC "-//W3C//DTD SVG 1.1 Tiny//EN" "http://www.w3.org/Graphics/SVG/1.1/DTD/svg11-tiny.dtd">
<svg version="1.1" baseProfile="tiny" id="Camada_1"
	 xmlns="http://www.w3.org/2000/svg" xmlns:xlink="http://www.w3.org/1999/xlink" x="0px" y="0px" viewBox="0 0 20 26"
	 xml:space="preserve">
<path fill="#1B9EC6" d="M10,26C5.6,26,0,15.1,0,10C0,4.5,4.5,0,10,0s10,4.5,10,10C20,15.1,14.4,26,10,26z M10,1.8
	c-4.5,0-8.2,3.7-8.2,8.2c0,4.9,5.4,14.2,8.2,14.2c2.8,0,8.2-9.3,8.2-14.2C18.2,5.5,14.5,1.8,10,1.8z"/>
<path fill="#1B9EC6" d="M10,14.5c-2.8,0-5.2-2.3-5.2-5.1c0-2.8,2.3-5.1,5.2-5.1s5.2,2.3,5.2,5.1C15.2,12.2,12.8,14.5,10,14.5z M10,6
	C8.2,6,6.7,7.5,6.7,9.4c0,1.8,1.5,3.3,3.3,3.3c1.8,0,3.3-1.5,3.3-3.3C13.3,7.5,11.8,6,10,6z"/>
</svg>
