<?xml version="1.0" encoding="utf-8"?>
<!-- Generator: Adobe Illustrator 18.0.0, SVG Export Plug-In . SVG Version: 6.00 Build 0)  -->
<!DOCTYPE svg PUBLIC "-//W3C//DTD SVG 1.1 Tiny//EN" "http://www.w3.org/Graphics/SVG/1.1/DTD/svg11-tiny.dtd">
<svg version="1.1" baseProfile="tiny" id="Слой_2"
	 xmlns="http://www.w3.org/2000/svg" xmlns:xlink="http://www.w3.org/1999/xlink" x="0px" y="0px" viewBox="0 0 132.5 71.2"
	 xml:space="preserve">
<g>
	<path fill="none" stroke="#005371" stroke-miterlimit="10" d="M62.2,46.3c8.1,0,15.2-4.4,19-11c-4.9-7.6-12.4-7.9-12.4-7.9
		c-2.4,2.4-6.6,5.9-6.6,5.9c0,0-4.2-3.5-6.6-5.9c0,0-7.5,0.3-12.4,7.9C47,41.9,54.1,46.3,62.2,46.3z"/>
	<path fill="none" stroke="#005371" stroke-miterlimit="10" d="M55.6,27.5c0,0-6.9,4.7-10,11.2"/>
	<path fill="none" stroke="#005371" stroke-miterlimit="10" d="M68.8,27.5c0,0,6.9,4.7,10,11.2"/>
	<line fill="none" stroke="#005371" stroke-miterlimit="10" x1="62.2" y1="36.9" x2="62.2" y2="42.9"/>
	<path fill="none" stroke="#005371" stroke-miterlimit="10" d="M52.8,3.6c0,2.6,0,4.5,0,7.1v5.5c0,5.2,4.2,9.4,9.4,9.4
		c5.2,0,9.4-4.2,9.4-9.4v-5.5c0-2.6,0-4.6,0-7.1C65.6,1.3,58.9,1.3,52.8,3.6z"/>
	<path fill="none" stroke="#005371" stroke-miterlimit="10" d="M67.5,23.8v-7c-1.4-0.7-3.2-1.1-5.3-1.1c-2.1,0-3.9,0.3-5.3,1.1v7"/>
	<path fill="none" stroke="#005371" stroke-miterlimit="10" d="M64.8,8.1C64,8.1,63.1,8,62.2,8c-3.4,0-6.6,0.5-8.8,1.2"/>
	<path fill="none" stroke="#005371" stroke-miterlimit="10" d="M71,9.3c-0.8-0.3-1.7-0.5-2.8-0.7"/>
</g>
<g>
	<path fill="#4F5A6A" d="M22.1,65.4L22.1,65.4c0,1.3-0.3,2.2-0.9,2.9c-0.6,0.7-1.5,1-2.7,1c-1.2,0-2.1-0.4-2.8-1.2s-1.1-1.9-1.1-3.3
		v-3.4c0-1.4,0.4-2.5,1-3.3c0.7-0.8,1.6-1.2,2.8-1.2c1.2,0,2.1,0.3,2.7,1s1,1.6,1,2.8l0,0h-1.6c0-0.9-0.2-1.5-0.5-2
		c-0.3-0.4-0.9-0.6-1.6-0.6c-0.7,0-1.2,0.3-1.6,0.8s-0.6,1.4-0.6,2.4v3.4c0,1.1,0.2,1.9,0.6,2.4c0.4,0.6,0.9,0.8,1.6,0.8
		c0.7,0,1.2-0.2,1.5-0.6c0.3-0.4,0.5-1.1,0.5-2H22.1z"/>
	<path fill="#4F5A6A" d="M25.5,67.8h4.7V69h-6.4V57h1.7V67.8z"/>
	<path fill="#4F5A6A" d="M33,53.9h1.9l0,0l-2,2.2h-1.3L33,53.9z M33.3,69h-1.7V57h1.7V69z"/>
	<path fill="#4F5A6A" d="M43.6,69h-1.7l-4.6-9l0,0v9h-1.7V57h1.7l4.6,9l0,0V57h1.7V69z"/>
	<path fill="#4F5A6A" d="M47.6,69h-1.7V57h1.7V69z"/>
	<path fill="#4F5A6A" d="M57,65.4L57,65.4c0,1.3-0.3,2.2-0.9,2.9c-0.6,0.7-1.5,1-2.7,1c-1.2,0-2.1-0.4-2.8-1.2s-1.1-1.9-1.1-3.3
		v-3.4c0-1.4,0.4-2.5,1-3.3c0.7-0.8,1.6-1.2,2.8-1.2c1.2,0,2.1,0.3,2.7,1s1,1.6,1,2.8l0,0h-1.6c0-0.9-0.2-1.5-0.5-2
		c-0.3-0.4-0.9-0.6-1.6-0.6c-0.7,0-1.2,0.3-1.6,0.8s-0.6,1.4-0.6,2.4v3.4c0,1.1,0.2,1.9,0.6,2.4c0.4,0.6,0.9,0.8,1.6,0.8
		c0.7,0,1.2-0.2,1.5-0.6c0.3-0.4,0.5-1.1,0.5-2H57z"/>
	<path fill="#4F5A6A" d="M66.4,64.7c0,1.4-0.4,2.5-1.1,3.3c-0.7,0.8-1.7,1.2-3,1.2c-1.2,0-2.2-0.4-2.9-1.2c-0.7-0.8-1.1-1.9-1.1-3.3
		v-3.3c0-1.4,0.4-2.5,1.1-3.4c0.7-0.8,1.7-1.2,2.9-1.2c1.2,0,2.2,0.4,3,1.2c0.7,0.8,1.1,1.9,1.1,3.4V64.7z M64.7,61.3
		c0-1.1-0.2-1.8-0.6-2.4c-0.4-0.5-1-0.8-1.8-0.8c-0.8,0-1.3,0.3-1.7,0.8c-0.4,0.5-0.6,1.3-0.6,2.4v3.3c0,1.1,0.2,1.9,0.6,2.4
		c0.4,0.5,1,0.8,1.7,0.8c0.8,0,1.4-0.3,1.8-0.8c0.4-0.5,0.6-1.4,0.6-2.4V61.3z"/>
	<path fill="#4F5A6A" d="M79.3,67.3c-0.3,0.5-0.7,0.9-1.3,1.3c-0.6,0.4-1.4,0.6-2.4,0.6c-1.3,0-2.3-0.4-3.1-1.2s-1.2-1.9-1.2-3.3
		v-3.6c0-1.4,0.4-2.5,1.1-3.3s1.7-1.2,2.9-1.2c1.2,0,2.2,0.3,2.8,0.9c0.7,0.6,1,1.5,1,2.6l0,0h-1.6c0-0.8-0.2-1.3-0.6-1.7
		c-0.4-0.4-0.9-0.6-1.6-0.6c-0.7,0-1.3,0.3-1.7,0.8c-0.4,0.5-0.6,1.3-0.6,2.3v3.6c0,1,0.2,1.8,0.7,2.4c0.5,0.5,1.1,0.8,1.9,0.8
		c0.6,0,1-0.1,1.3-0.3c0.3-0.2,0.6-0.4,0.7-0.8v-2.7h-2.1v-1.2h3.8V67.3z"/>
	<path fill="#4F5A6A" d="M87.6,63.4h-4.5v4.3h5.2V69h-6.9V57h6.8v1.3h-5.1v3.9h4.5V63.4z"/>
	<path fill="#4F5A6A" d="M91.4,63.8V69h-1.7V57h3.8c1.1,0,2,0.3,2.7,0.9s0.9,1.4,0.9,2.5c0,0.6-0.1,1.2-0.4,1.7
		c-0.3,0.5-0.7,0.8-1.3,1.1c0.6,0.2,1,0.6,1.3,1c0.3,0.5,0.4,1.1,0.4,1.8v1.1c0,0.4,0,0.7,0.1,1c0.1,0.3,0.2,0.6,0.4,0.8V69h-1.7
		c-0.2-0.2-0.3-0.5-0.4-0.8c-0.1-0.4-0.1-0.8-0.1-1.2v-1c0-0.7-0.2-1.2-0.5-1.6c-0.3-0.4-0.7-0.6-1.3-0.6H91.4z M91.4,62.5h2
		c0.7,0,1.2-0.2,1.5-0.6c0.3-0.4,0.5-0.9,0.5-1.6c0-0.7-0.2-1.2-0.5-1.6c-0.3-0.4-0.8-0.6-1.4-0.6h-2.1V62.5z"/>
	<path fill="#4F5A6A" d="M104.7,66h-3.9L100,69h-1.7L102,57h1.6l3.7,12.1h-1.7L104.7,66z M101.2,64.6h3.1l-1.5-5.3h0L101.2,64.6z"/>
	<path fill="#4F5A6A" d="M110.2,67.8h4.7V69h-6.4V57h1.7V67.8z"/>
</g>
</svg>
